PathFileType	4	(X/Y/Z)	/Users/itak/Documents/Research/Walk-IL/dataset/trc/00028_00004.trc
DataRate	CameraRate	NumFrames	NumMarkers	Units	OrigDataRate	OrigDataStartFrame	OrigNumFrames
100.000000	100.000000	4	53	mm	100.000000	0	633
Frame#	Time	RPSI			LPSI			L3			STRN			T10			C7			CLAV			RBAK			LBAK			LSHO			LUPA			LAEL			LAOL			LWTS			LWPS			LFRA			LIFD			LHPS			LHTS			RSHO			RUPA			RAEL			RAOL			RWTS			RWPS			RFRA			RIFD			RHTS			RHPS			RBHD			LFHD			RFHD			LBHD			LHIP			RHIP			RASI			LASI			LKNE			LTHI			LANK			LTIP			LTOE			LMT1			LMT5			LHEE			RKNE			RTHI			RANK			RTIP			RTOE			RMT1			RMT5			RHEE			
		X1	Y1	Z1	X2	Y2	Z2	X3	Y3	Z3	X4	Y4	Z4	X5	Y5	Z5	X6	Y6	Z6	X7	Y7	Z7	X8	Y8	Z8	X9	Y9	Z9	X10	Y10	Z10	X11	Y11	Z11	X12	Y12	Z12	X13	Y13	Z13	X14	Y14	Z14	X15	Y15	Z15	X16	Y16	Z16	X17	Y17	Z17	X18	Y18	Z18	X19	Y19	Z19	X20	Y20	Z20	X21	Y21	Z21	X22	Y22	Z22	X23	Y23	Z23	X24	Y24	Z24	X25	Y25	Z25	X26	Y26	Z26	X27	Y27	Z27	X28	Y28	Z28	X29	Y29	Z29	X30	Y30	Z30	X31	Y31	Z31	X32	Y32	Z32	X33	Y33	Z33	X34	Y34	Z34	X35	Y35	Z35	X36	Y36	Z36	X37	Y37	Z37	X38	Y38	Z38	X39	Y39	Z39	X40	Y40	Z40	X41	Y41	Z41	X42	Y42	Z42	X43	Y43	Z43	X44	Y44	Z44	X45	Y45	Z45	X46	Y46	Z46	X47	Y47	Z47	X48	Y48	Z48	X49	Y49	Z49	X50	Y50	Z50	X51	Y51	Z51	X52	Y52	Z52	X53	Y53	Z53	

1	0	290.7550048828125	1069.928955078125	1063.433837890625	308.5799255371094	1063.769165039062	1224.734741210938	302.9931945800781	1130.418090820312	1157.141723632812	61.89756774902344	1306.195190429688	1164.433349609375	315.2539367675781	1274.498413085938	1176.227783203125	243.6781921386719	1536.89501953125	1199.29833984375	96.39019012451172	1434.372192382812	1175.98828125	314.5671691894531	1407.814819335938	1117.627319335938	256.9716796875	1493.282958984375	1294.96875	149.7162322998047	1489.939575195312	1360.612548828125	184.955322265625	1367.243774414062	1439.834716796875	201.3822479248047	1150.832763671875	1467.960327148438	263.8729553222656	1142.234008789062	1382.120361328125	133.2987365722656	891.5234375	1404.316528320312	206.1326293945312	882.8895263671875	1454.152709960938	195.1363220214844	1033.53662109375	1473.324462890625	115.0029602050781	707.3273315429688	1377.267333984375	179.0469207763672	790.5604248046875	1448.822998046875	116.5755310058594	797.1858520507812	1414.128173828125	186.5399627685547	1523.048950195312	1017.282348632812	214.5077514648438	1458.616821289062	946.1485595703125	284.7994079589844	1197.468139648438	916.6596069335938	273.7935485839844	1165.35009765625	1010.497497558594	164.8784027099609	930.284912109375	916.7830810546875	239.3152923583984	920.7854614257812	863.07861328125	279.8040466308594	1120.517333984375	896.2847900390625	154.6101379394531	743.832763671875	923.662109375	137.9064331054688	820.665771484375	893.2971801757812	202.2587890625	818.8919067382812	854.2068481445312	119.7858200073242	1711.167846679688	1262.43359375	31.58534812927246	1702.590209960938	1062.4697265625	-20.43401527404785	1700.7216796875	1146.690795898438	189.6372833251953	1710.656127929688	1136.468994140625	230.40283203125	955.6502075195312	1338.533447265625	164.3427276611328	957.2632446289062	968.8170166015625	77.77891540527344	988.3820190429688	1057.3720703125	102.3959732055664	997.035888671875	1290.303466796875	208.7159881591797	514.5075073242188	1300.002685546875	227.334716796875	651.0033569335938	1331.450317382812	346.1028442382812	38.31279373168945	1286.73583984375	310.5408935546875	286.3728942871094	1308.242919921875	124.0841064453125	41.49510192871094	1225.118286132812	183.8056488037109	50.95040893554688	1209.151123046875	222.7437744140625	36.27696228027344	1310.1181640625	414.1497802734375	47.10015106201172	1232.408935546875	12.27104473114014	548.6043701171875	1012.911743164062	101.1529006958008	804.5447387695312	977.6638793945312	131.0423278808594	63.07254028320312	1089.449829101562	30.20037269592285	414.7829284667969	1022.514221191406	-103.7842254638672	72.26788330078125	1088.031494140625	-45.63968658447266	73.13147735595703	1128.597534179688	-11.54277229309082	65.92917633056641	1039.93212890625	186.2159881591797	50.77872467041016	1135.97509765625	
2	0.01	288.5855102539062	1069.449584960938	1062.744995117188	306.316650390625	1063.336547851562	1224.037841796875	300.8448486328125	1130.109741210938	1156.452514648438	59.40261077880859	1305.687866210938	1163.400634765625	312.8683166503906	1274.205444335938	1175.537841796875	240.9936828613281	1536.518188476562	1198.56005859375	93.76390838623047	1433.864379882812	1174.985717773438	312.1334533691406	1407.519287109375	1116.94287109375	254.1490173339844	1492.91259765625	1294.25	146.7860717773438	1489.478149414062	1359.682739257812	181.8232574462891	1366.768310546875	1439.006469726562	197.8608551025391	1150.280395507812	1467.059448242188	260.5960083007812	1141.588256835938	1381.378784179688	129.1388854980469	891.3880004882812	1403.11767578125	201.6984252929688	882.3529052734375	1452.99853515625	191.2207794189453	1033.035034179688	1472.353271484375	109.2309036254883	707.341796875	1375.180786132812	174.3258209228516	790.1469116210938	1447.576171875	111.936408996582	797.0350952148438	1412.781494140625	184.0902557373047	1522.6201171875	1016.454956054688	212.196044921875	1458.227661132812	945.3580932617188	282.9683532714844	1197.277587890625	915.9027099609375	271.7828979492188	1165.062866210938	1009.685424804688	164.2489166259766	929.596435546875	915.49609375	238.8866577148438	920.4764404296875	861.9696655273438	278.2792053222656	1120.354736328125	895.4606323242188	155.1113891601562	743.0592041015625	922.3975219726562	137.9235076904297	819.8247680664062	891.970703125	202.3849029541016	818.4176635742188	852.9924926757812	116.7471466064453	1710.595947265625	1261.555786132812	29.51556777954102	1702.232177734375	1061.143798828125	-22.9204044342041	1700.374389648438	1145.155639648438	187.2136077880859	1710.070678710938	1135.906616210938	228.0890808105469	955.3235473632812	1337.793334960938	162.1092071533203	956.9890747070312	968.0318603515625	75.68399810791016	988.0599975585938	1056.61962890625	100.1753158569336	996.6824951171875	1289.57861328125	207.5211639404297	514.20068359375	1299.616455078125	225.6282348632812	650.8450317382812	1330.749389648438	346.0813903808594	38.33828735351562	1286.643798828125	310.0273742675781	286.4281311035156	1307.828735351562	123.9957962036133	41.45768737792969	1225.146362304688	183.7472534179688	50.88575744628906	1209.147094726562	222.7581329345703	36.31373596191406	1310.126586914062	414.1165466308594	47.25181579589844	1232.250732421875	8.643247604370117	549.217041015625	1010.661254882812	98.67162322998047	804.71435546875	976.3654174804688	120.9126586914062	62.39706420898438	1088.366943359375	25.08606338500977	415.3035583496094	1020.505737304688	-113.8487396240234	72.74566650390625	1084.793090820312	-56.04389572143555	73.51094818115234	1125.842163085938	-21.13973236083984	66.06769561767578	1037.51513671875	172.9037933349609	53.5299072265625	1137.635864257812	
3	0.02	285.824951171875	1068.801147460938	1061.861572265625	303.4106750488281	1062.773559570312	1223.14892578125	298.0700073242188	1129.688842773438	1155.559692382812	56.21345138549805	1305.024047851562	1162.071899414062	309.8251647949219	1273.80908203125	1174.634521484375	237.5591888427734	1536.016357421875	1197.581420898438	90.43943786621094	1433.205444335938	1173.698852539062	309.0181579589844	1407.118774414062	1116.043212890625	250.5708312988281	1492.420532226562	1293.295654296875	143.0718231201172	1488.876220703125	1358.478637695312	177.8568420410156	1366.151123046875	1437.92236328125	193.4200134277344	1149.567749023438	1465.8935546875	256.4383239746094	1140.759521484375	1380.415649414062	123.816535949707	891.214599609375	1401.546142578125	196.0820159912109	881.6615600585938	1451.501953125	186.2631225585938	1032.382934570312	1471.08740234375	102.8890380859375	707.209228515625	1373.250732421875	168.2824859619141	789.61083984375	1445.937133789062	106.0169525146484	796.8508911132812	1411.028442382812	180.9408111572266	1522.0458984375	1015.363037109375	209.2425994873047	1457.696044921875	944.320556640625	280.6138000488281	1196.996704101562	914.9144287109375	269.2211303710938	1164.668090820312	1008.632934570312	163.4148101806641	928.6895751953125	913.8616943359375	238.2834777832031	920.0560302734375	860.5563354492188	276.3080139160156	1120.11328125	894.3926391601562	155.7639617919922	742.0382080078125	920.8302612304688	137.9273834228516	818.7368774414062	890.2900390625	202.4892883300781	817.786865234375	851.4497680664062	112.8847427368164	1709.854125976562	1260.401123046875	26.86461639404297	1701.737182617188	1059.434692382812	-26.0893440246582	1699.910888671875	1143.159790039062	184.1081237792969	1709.312255859375	1135.155517578125	225.0841064453125	954.89794921875	1336.853637695312	159.2819671630859	956.5902099609375	967.0347290039062	72.96584320068359	987.6170043945312	1055.631591796875	97.29913330078125	996.2192993164062	1288.626098632812	205.9655609130859	513.830078125	1299.10498046875	223.4681854248047	650.6510620117188	1329.866088867188	346.0587463378906	38.3816032409668	1286.525512695312	309.3173522949219	286.4969482421875	1307.349487304688	123.9046936035156	41.40864944458008	1225.1611328125	183.6655120849609	50.8232421875	1209.14111328125	222.7841796875	36.37553024291992	1310.139526367188	414.0757751464844	47.44861602783203	1232.05908203125	4.106697082519531	549.92529296875	1007.792663574219	95.53314971923828	804.8637084960938	974.6930541992188	108.1048049926758	61.61933135986328	1086.826171875	18.67025947570801	415.9264831542969	1017.907653808594	-126.5086898803711	73.57548522949219	1080.475219726562	-69.15641784667969	74.13208770751953	1122.1494140625	-33.23252868652344	66.38564300537109	1034.257446289062	156.9105682373047	55.8216552734375	1138.795532226562	
4	0.03	282.5653686523438	1067.98779296875	1060.810913085938	299.9434509277344	1062.089599609375	1222.096801757812	294.7442016601562	1129.15576171875	1154.487548828125	52.43549728393555	1304.218627929688	1160.485107421875	306.2184753417969	1273.308837890625	1173.535522460938	233.4855194091797	1535.395751953125	1196.375	86.5338134765625	1432.40966796875	1172.160278320312	305.3225402832031	1406.614135742188	1114.943725585938	246.3619384765625	1491.813720703125	1292.118530273438	138.7083435058594	1488.147338867188	1357.028076171875	173.2035064697266	1365.408081054688	1436.602905273438	188.2259521484375	1148.713989257812	1464.490356445312	251.5481414794922	1139.772705078125	1379.25341796875	117.5127792358398	891.002197265625	1399.633666992188	189.4848022460938	880.8359375	1449.701293945312	180.4437866210938	1031.598266601562	1469.554443359375	96.24730682373047	706.93701171875	1371.573486328125	161.1166534423828	788.968994140625	1443.93798828125	99.02198791503906	796.6484375	1408.907470703125	177.1917114257812	1521.332153320312	1014.02490234375	205.7421264648438	1457.022827148438	943.0538330078125	277.8051452636719	1196.615844726562	913.7154541015625	266.1935729980469	1164.162475585938	1007.365600585938	162.3844146728516	927.5818481445312	911.937744140625	237.4965972900391	919.5247192382812	858.8862915039062	273.9439086914062	1119.783447265625	893.1077880859375	156.5155487060547	740.795166015625	919.0203247070312	137.8871459960938	817.4293212890625	888.3128662109375	202.5370330810547	817.0081787109375	849.6327514648438	108.3300628662109	1708.960083007812	1258.987548828125	23.71450233459473	1701.103393554688	1057.38916015625	-29.83620643615723	1699.329223632812	1140.757202148438	180.4182586669922	1708.400024414062	1134.22216796875	221.4605865478516	954.38330078125	1335.747802734375	155.9701843261719	956.0556030273438	965.8601684570312	69.69648742675781	987.0538940429688	1054.423583984375	93.84450531005859	995.6553955078125	1287.466186523438	204.0836944580078	513.4096069335938	1298.4794921875	220.9132995605469	650.4249267578125	1328.83056640625	346.0390930175781	38.44778823852539	1286.38232421875	308.4199829101562	286.5747680664062	1306.836059570312	123.8187408447266	41.34737396240234	1225.156005859375	183.5610198974609	50.76831436157227	1209.133178710938	222.8218078613281	36.4625244140625	1310.157470703125	414.0279541015625	47.68294143676758	1231.8466796875	-1.139481067657471	550.6683959960938	1004.408813476562	91.86402130126953	804.9552612304688	972.6939697265625	93.10858154296875	60.79062271118164	1084.7890625	11.22064208984375	416.6092224121094	1014.791625976562	-141.2450866699219	74.86032867431641	1075.119018554688	-84.45750427246094	75.06175994873047	1117.5458984375	-47.33258438110352	66.95647430419922	1030.1767578125	139.0312194824219	57.29739379882812	1139.1416015625	
